<?xml version="1.0" encoding="utf-8"?>
<!-- Generator: Adobe Illustrator 16.0.4, SVG Export Plug-In . SVG Version: 6.00 Build 0)  -->
<!DOCTYPE svg PUBLIC "-//W3C//DTD SVG 1.1//EN" "http://www.w3.org/Graphics/SVG/1.1/DTD/svg11.dtd">
<svg version="1.1" id="Layer_1" xmlns="http://www.w3.org/2000/svg" xmlns:xlink="http://www.w3.org/1999/xlink" x="0px" y="0px"
	 width="57.352px" height="56.768px" viewBox="0 0 57.352 56.768" enable-background="new 0 0 57.352 56.768" xml:space="preserve">
<path fill-rule="evenodd" clip-rule="evenodd" fill="#5D5D81" d="M52.469,55.001H4.343c-1.9,0-3.438-1.537-3.438-3.437V3.438
	C0.905,1.538,2.443,0,4.343,0h34.375l-6.875,6.875H7.78v41.25h41.25V24.062l6.875-6.875v34.376
	C55.905,53.464,54.368,55.001,52.469,55.001z M14.655,41.252V30.938L45.592,0h3.438l6.875,6.875v3.438L24.968,41.252H14.655z
	 M30.124,29.219L49.03,10.312l-3.438-3.438L26.688,25.782L30.124,29.219z M21.531,30.938l-3.438,3.438v3.437h3.438l3.437-3.437
	L21.531,30.938z"/>
</svg>
