<?xml version="1.0" encoding="utf-8"?>
<!-- Generator: Adobe Illustrator 16.0.4, SVG Export Plug-In . SVG Version: 6.00 Build 0)  -->
<!DOCTYPE svg PUBLIC "-//W3C//DTD SVG 1.1//EN" "http://www.w3.org/Graphics/SVG/1.1/DTD/svg11.dtd">
<svg version="1.1" id="Layer_1" xmlns="http://www.w3.org/2000/svg" xmlns:xlink="http://www.w3.org/1999/xlink" x="0px" y="0px"
	 width="85px" height="85px" viewBox="0 0 85 85" enable-background="new 0 0 85 85" xml:space="preserve">
<circle fill="#A690C3" cx="42.904" cy="42.501" r="41.045"/>
<g id="User_-_Grey">
	<g enable-background="new    ">
		<path fill="#FFFFFF" d="M58.844,68.412H26.771c-5.835,0-9.798-3.56-9.798-9.505c0-8.293,1.945-21.027,12.697-21.027
			c1.138,0,5.945,5.101,13.138,5.101s12-5.101,13.138-5.101c10.752,0,12.697,12.734,12.697,21.027
			C68.643,64.853,64.679,68.412,58.844,68.412z M42.807,40.229c-7.78,0-14.092-6.312-14.092-14.092s6.312-14.092,14.092-14.092
			s14.091,6.312,14.091,14.092S50.587,40.229,42.807,40.229z"/>
	</g>
</g>
</svg>
