<?xml version="1.0" encoding="utf-8"?>
<!-- Generator: Adobe Illustrator 16.0.4, SVG Export Plug-In . SVG Version: 6.00 Build 0)  -->
<!DOCTYPE svg PUBLIC "-//W3C//DTD SVG 1.1//EN" "http://www.w3.org/Graphics/SVG/1.1/DTD/svg11.dtd">
<svg version="1.1" id="Layer_1" xmlns="http://www.w3.org/2000/svg" xmlns:xlink="http://www.w3.org/1999/xlink" x="0px" y="0px"
	 width="57.352px" height="56.768px" viewBox="0 0 57.352 56.768" enable-background="new 0 0 57.352 56.768" xml:space="preserve">
<path fill-rule="evenodd" clip-rule="evenodd" fill="#5D5D81" d="M52.913,56.768h-6.875l0,0H11.663l0,0H4.788
	c-1.898,0-3.438-1.541-3.438-3.438V5.205c0-1.898,1.539-3.438,3.438-3.438h3.438l0,0h37.812l0,0h6.875
	c1.9,0,3.438,1.539,3.438,3.438V53.33C56.351,55.227,54.814,56.768,52.913,56.768z M49.476,8.643h-6.875l0,0h-27.5l0,0H8.226v41.25
	h6.875l0,0h27.5l0,0h6.875V8.643z M28.851,36.143h13.75v6.875h-13.75V36.143z M28.851,25.83h13.75v6.875h-13.75V25.83z
	 M28.851,15.518h13.75v6.875h-13.75V15.518z M15.101,36.143h6.875v6.875h-6.875V36.143z M15.101,25.83h6.875v6.875h-6.875V25.83z
	 M15.101,15.518h6.875v6.875h-6.875V15.518z"/>
</svg>
