<?xml version="1.0" encoding="utf-8"?>
<!-- Generator: Adobe Illustrator 16.0.4, SVG Export Plug-In . SVG Version: 6.00 Build 0)  -->
<!DOCTYPE svg PUBLIC "-//W3C//DTD SVG 1.1//EN" "http://www.w3.org/Graphics/SVG/1.1/DTD/svg11.dtd">
<svg version="1.1" id="Layer_1" xmlns="http://www.w3.org/2000/svg" xmlns:xlink="http://www.w3.org/1999/xlink" x="0px" y="0px"
	 width="57.352px" height="56.768px" viewBox="0 0 57.352 56.768" enable-background="new 0 0 57.352 56.768" xml:space="preserve">
<path fill="#FFFFFF" d="M56.2,38.626v3.436c0,1.901-1.538,3.439-3.438,3.439h-3.439l0,0h-3.438v10.312L30.419,45.501H8.077l0,0
	H4.639c-1.897,0-3.438-1.538-3.438-3.439V4.251c0-1.9,1.539-3.438,3.438-3.438h6.875h6.875l0,0h27.499l0,0h6.877
	c1.898,0,3.438,1.538,3.438,3.438v3.437l0,0L56.2,38.626L56.2,38.626z M49.323,7.688h-6.874l0,0H14.952l0,0H8.077v24.063v6.875
	h6.875l0,0h15.467l8.595,5.155v-5.155h3.438l0,0h6.873L49.323,7.688L49.323,7.688z M18.388,31.751h-3.437v-6.875h27.498v6.875
	H18.388L18.388,31.751z M14.952,14.563h27.498v6.875H14.952V14.563z"/>
</svg>
