<?xml version="1.0" encoding="utf-8"?>
<!-- Generator: Adobe Illustrator 16.0.4, SVG Export Plug-In . SVG Version: 6.00 Build 0)  -->
<!DOCTYPE svg PUBLIC "-//W3C//DTD SVG 1.1//EN" "http://www.w3.org/Graphics/SVG/1.1/DTD/svg11.dtd">
<svg version="1.1" id="Layer_1" xmlns="http://www.w3.org/2000/svg" xmlns:xlink="http://www.w3.org/1999/xlink" x="0px" y="0px"
	 width="122px" height="32px" viewBox="0 0 122 32" enable-background="new 0 0 122 32" xml:space="preserve">
<path fill="#FFFFFF" d="M21.176,25.048L21.176,25.048c-0.796,0-1.441-0.646-1.441-1.442V9.856l-6.196,5.219L7.343,9.856v13.75
	c0,0.797-0.645,1.442-1.441,1.442c-0.795,0-1.44-0.646-1.44-1.442V5.565c0-0.754,0.88-1.164,1.457-0.679l7.622,6.419l7.622-6.419
	c0.577-0.485,1.457-0.075,1.457,0.679v18.041C22.617,24.402,21.973,25.048,21.176,25.048"/>
<path fill="#FFFFFF" d="M56.562,23.029L48.73,5.05c-0.316-0.727-1.346-0.725-1.662,0.001l-7.801,17.98
	c-0.084,0.189-0.123,0.386-0.123,0.572c0,0.762,0.614,1.441,1.444,1.441c0.574,0,1.093-0.341,1.322-0.865l2.565-5.908l3.424,2.961
	l3.439-2.974l2.577,5.921c0.229,0.524,0.749,0.865,1.323,0.865C56.277,25.048,56.977,23.98,56.562,23.029 M47.9,17.425l-2.221-1.922
	l2.227-5.129l2.23,5.12L47.9,17.425z"/>
<path fill="#FFFFFF" d="M105.887,4.137L105.887,4.137c0.43,0,0.838,0.192,1.111,0.523l4.952,5.999l4.954-5.999
	c0.273-0.332,0.682-0.523,1.109-0.523c1.221,0,1.889,1.42,1.111,2.358l-5.734,6.946v10.188c0,0.798-0.646,1.443-1.44,1.443
	c-0.796,0-1.44-0.646-1.44-1.443V13.441l-5.734-6.946C103.998,5.557,104.668,4.137,105.887,4.137"/>
<path fill="#FFFFFF" d="M87.645,6.816l-7.69,17.688c-0.328,0.76-1.402,0.756-1.729-0.002l-7.643-17.69
	c-0.411-0.951,0.287-2.013,1.322-2.013c0.576,0,1.096,0.343,1.322,0.871l5.869,13.58L85,5.667C85.229,5.142,85.747,4.8,86.32,4.8
	C87.361,4.8,88.059,5.864,87.645,6.816"/>
</svg>
