<?xml version="1.0" encoding="utf-8"?>
<!-- Generator: Adobe Illustrator 16.0.4, SVG Export Plug-In . SVG Version: 6.00 Build 0)  -->
<!DOCTYPE svg PUBLIC "-//W3C//DTD SVG 1.1//EN" "http://www.w3.org/Graphics/SVG/1.1/DTD/svg11.dtd">
<svg version="1.1" id="Layer_1" xmlns="http://www.w3.org/2000/svg" xmlns:xlink="http://www.w3.org/1999/xlink" x="0px" y="0px"
	 width="62px" height="65px" viewBox="0 0 62 65" enable-background="new 0 0 62 65" xml:space="preserve">
<path fill="#FFFFFF" d="M54.083,5.334c-0.635,0-1.236,0.248-1.688,0.703L39.138,19.293l-0.014,0.012L33.679,6.823
	c-0.383-0.873-1.246-1.437-2.195-1.437c-0.952,0-1.813,0.563-2.196,1.437l-2.242,5.131l-3.202,7.336l-0.001-0.002L10.574,6.022
	C10.121,5.568,9.52,5.32,8.886,5.32c-1.324,0-2.399,1.074-2.399,2.396v48.831c0,1.346,1.055,2.396,2.402,2.396
	c0.963,0,1.8-0.551,2.188-1.438l9.383-21.498l0.023-0.053l9.221,9.22l-0.008,12.468c-0.002,0.986,0.799,1.791,1.788,1.793
	c0.988,0,1.793-0.805,1.793-1.793l-0.01-12.451l9.221-9.221l0.012,0.031l9.393,21.52c0.39,0.888,1.228,1.438,2.188,1.438
	c1.351,0,2.405-1.053,2.405-2.396V7.732C56.485,6.408,55.407,5.334,54.083,5.334 M10.069,50.841v-25.3l7.688,7.688L10.069,50.841z
	 M19.298,29.701l-9.229-9.229v-9.885l12.232,12.231L19.298,29.701z M29.704,40.107l-0.026-0.025v0.055l-7.683-7.684l3.008-6.877
	l0.006,0.004l0.015-0.037l4.688,4.687L29.704,40.107z M31.493,26.939l-0.03,0.028l-4.918-4.92l4.341-9.932l0.596-1.361l0.004-0.016
	l4.938,11.293l-4.918,4.92L31.493,26.939z M33.29,40.121v-0.023l-0.025,0.025l-0.008-9.877l4.688-4.687l0.005,0.017l0.018-0.017
	l3.009,6.877L33.29,40.121z M52.897,50.857l-7.688-17.613l7.688-7.687V50.857z M52.897,20.488l-9.211,9.211l-0.018,0.018
	l-3.005-6.881l12.231-12.232L52.897,20.488L52.897,20.488z"/>
</svg>
